HIERARCHY
ROOT Hips
{
	OFFSET 0.000000 103.266502 0.000000
	CHANNELS 6 Xposition Yposition Zposition Xrotation Yrotation Zrotation 
	JOINT Spine
	{
		OFFSET -0.002400 12.777504 0.315300
		CHANNELS 3 Xrotation Yrotation Zrotation
		JOINT Spine1
		{
			OFFSET -0.002067 5.816869 0.032633
			CHANNELS 3 Xrotation Yrotation Zrotation
			JOINT Spine1_split
			{
				OFFSET -0.002067 5.816869 0.032633
				CHANNELS 3 Xrotation Yrotation Zrotation
				JOINT Spine2
				{
					OFFSET -0.002067 5.816869 0.032633
					CHANNELS 3 Xrotation Yrotation Zrotation
					JOINT Neck
					{
						OFFSET -0.003700 21.199493 -0.826900
						CHANNELS 3 Xrotation Yrotation Zrotation
						JOINT Head
						{
							OFFSET 0.000000 20.442200 4.834800
							CHANNELS 3 Xrotation Yrotation Zrotation
							JOINT HeadTop_End
							{
								OFFSET 0.000000 34.668396 4.968400
								CHANNELS 3 Xrotation Yrotation Zrotation
								End Site
								{
									OFFSET 0.000000 0.000000 0.000000
								}
							}
						}
					}
					JOINT LeftShoulder
					{
						OFFSET 3.288150 8.794197 -1.372250
						CHANNELS 3 Xrotation Yrotation Zrotation
						JOINT LeftShoulder_split
						{
							OFFSET 3.288150 8.794197 -1.372250
							CHANNELS 3 Xrotation Yrotation Zrotation
							JOINT LeftArm
							{
								OFFSET 11.953299 -2.279007 -0.146200
								CHANNELS 3 Xrotation Yrotation Zrotation
								JOINT LeftForeArm
								{
									OFFSET 18.448900 0.000000 0.000000
									CHANNELS 3 Xrotation Yrotation Zrotation
									JOINT LeftHand
									{
										OFFSET 29.527798 0.000000 0.000000
										CHANNELS 3 Xrotation Yrotation Zrotation
										JOINT LeftHandThumb1
										{
											OFFSET 10.739754 -2.369614 9.225399
											CHANNELS 3 Xrotation Yrotation Zrotation
											JOINT LeftHandThumb2
											{
												OFFSET 4.926170 -2.844131 2.844125
												CHANNELS 3 Xrotation Yrotation Zrotation
												JOINT LeftHandThumb3
												{
													OFFSET 4.614891 -2.664413 2.664409
													CHANNELS 3 Xrotation Yrotation Zrotation
													JOINT LeftHandThumb4
													{
														OFFSET 4.432465 -2.559082 2.559083
														CHANNELS 3 Xrotation Yrotation Zrotation
														End Site
														{
															OFFSET 0.000000 0.000000 0.000000
														}
													}
												}
											}
										}
										JOINT LeftHandIndex1
										{
											OFFSET 26.467674 0.187653 6.405298
											CHANNELS 3 Xrotation Yrotation Zrotation
											JOINT LeftHandIndex2
											{
												OFFSET 8.792900 0.000000 0.000000
												CHANNELS 3 Xrotation Yrotation Zrotation
												JOINT LeftHandIndex3
												{
													OFFSET 10.075203 0.000000 0.000000
													CHANNELS 3 Xrotation Yrotation Zrotation
													End Site
													{
														OFFSET 0.000000 0.000000 0.000000
													}
												}
											}
										}
										JOINT LeftHandMiddle1
										{
											OFFSET 25.764404 0.000000 0.000000
											CHANNELS 3 Xrotation Yrotation Zrotation
											JOINT LeftHandMiddle2
											{
												OFFSET 9.393974 0.000000 0.000000
												CHANNELS 3 Xrotation Yrotation Zrotation
												JOINT LeftHandMiddle3
												{
													OFFSET 10.771950 0.000000 0.000000
													CHANNELS 3 Xrotation Yrotation Zrotation
													End Site
													{
														OFFSET 0.000000 0.000000 0.000000
													}
												}
											}
										}
										JOINT LeftHandRing1
										{
											OFFSET 24.660927 0.144547 -6.225808
											CHANNELS 3 Xrotation Yrotation Zrotation
											JOINT LeftHandRing2
											{
												OFFSET 9.393799 0.000000 0.000000
												CHANNELS 3 Xrotation Yrotation Zrotation
												JOINT LeftHandRing3
												{
													OFFSET 9.928497 0.000000 0.000000
													CHANNELS 3 Xrotation Yrotation Zrotation
													End Site
													{
														OFFSET 0.000000 0.000000 0.000000
													}
												}
											}
										}
										JOINT LeftHandPinky1
										{
											OFFSET 23.655350 0.125290 -12.815412
											CHANNELS 3 Xrotation Yrotation Zrotation
											JOINT LeftHandPinky2
											{
												OFFSET 8.425102 0.000000 0.000000
												CHANNELS 3 Xrotation Yrotation Zrotation
												JOINT LeftHandPinky3
												{
													OFFSET 8.147003 0.000000 0.000000
													CHANNELS 3 Xrotation Yrotation Zrotation
													End Site
													{
														OFFSET 0.000000 0.000000 0.000000
													}
												}
											}
										}
									}
								}
							}
						}
					}
					JOINT RightShoulder
					{
						OFFSET -3.249400 8.794197 -1.372250
						CHANNELS 3 Xrotation Yrotation Zrotation
						JOINT RightShoulder_split
						{
							OFFSET -3.249400 8.794197 -1.372250
							CHANNELS 3 Xrotation Yrotation Zrotation
							JOINT RightArm
							{
								OFFSET -11.953299 -2.279007 -0.146200
								CHANNELS 3 Xrotation Yrotation Zrotation
								JOINT RightForeArm
								{
									OFFSET -18.448900 0.000000 0.000000
									CHANNELS 3 Xrotation Yrotation Zrotation
									JOINT RightHand
									{
										OFFSET -29.527802 0.000000 0.000000
										CHANNELS 3 Xrotation Yrotation Zrotation
										JOINT RightHandThumb1
										{
											OFFSET -10.739754 -2.369614 9.225399
											CHANNELS 3 Xrotation Yrotation Zrotation
											JOINT RightHandThumb2
											{
												OFFSET -4.926170 -2.844131 2.844125
												CHANNELS 3 Xrotation Yrotation Zrotation
												JOINT RightHandThumb3
												{
													OFFSET -4.614891 -2.664413 2.664409
													CHANNELS 3 Xrotation Yrotation Zrotation
													JOINT RightHandThumb4
													{
														OFFSET -4.432465 -2.559082 2.559083
														CHANNELS 3 Xrotation Yrotation Zrotation
														End Site
														{
															OFFSET 0.000000 0.000000 0.000000
														}
													}
												}
											}
										}
										JOINT RightHandIndex1
										{
											OFFSET -26.467674 0.187653 6.405298
											CHANNELS 3 Xrotation Yrotation Zrotation
											JOINT RightHandIndex2
											{
												OFFSET -8.792900 0.000000 0.000000
												CHANNELS 3 Xrotation Yrotation Zrotation
												JOINT RightHandIndex3
												{
													OFFSET -10.075203 0.000000 0.000000
													CHANNELS 3 Xrotation Yrotation Zrotation
													End Site
													{
														OFFSET 0.000000 0.000000 0.000000
													}
												}
											}
										}
										JOINT RightHandMiddle1
										{
											OFFSET -25.764404 0.000000 0.000000
											CHANNELS 3 Xrotation Yrotation Zrotation
											JOINT RightHandMiddle2
											{
												OFFSET -9.393974 0.000000 0.000000
												CHANNELS 3 Xrotation Yrotation Zrotation
												JOINT RightHandMiddle3
												{
													OFFSET -10.771950 0.000000 0.000000
													CHANNELS 3 Xrotation Yrotation Zrotation
													End Site
													{
														OFFSET 0.000000 0.000000 0.000000
													}
												}
											}
										}
										JOINT RightHandRing1
										{
											OFFSET -24.660927 0.144547 -6.225808
											CHANNELS 3 Xrotation Yrotation Zrotation
											JOINT RightHandRing2
											{
												OFFSET -9.393799 0.000000 0.000000
												CHANNELS 3 Xrotation Yrotation Zrotation
												JOINT RightHandRing3
												{
													OFFSET -9.928497 0.000000 0.000000
													CHANNELS 3 Xrotation Yrotation Zrotation
													End Site
													{
														OFFSET 0.000000 0.000000 0.000000
													}
												}
											}
										}
										JOINT RightHandPinky1
										{
											OFFSET -23.655350 0.125290 -12.815412
											CHANNELS 3 Xrotation Yrotation Zrotation
											JOINT RightHandPinky2
											{
												OFFSET -8.425102 0.000000 0.000000
												CHANNELS 3 Xrotation Yrotation Zrotation
												JOINT RightHandPinky3
												{
													OFFSET -8.147003 0.000000 0.000000
													CHANNELS 3 Xrotation Yrotation Zrotation
													End Site
													{
														OFFSET 0.000000 0.000000 0.000000
													}
												}
											}
										}
									}
								}
							}
						}
					}
				}
			}
		}
	}
	JOINT LeftUpLeg
	{
		OFFSET 11.394100 -6.187798 -0.413800
		CHANNELS 3 Xrotation Yrotation Zrotation
		JOINT LeftLeg
		{
			OFFSET 0.430247 -32.302673 3.732800
			CHANNELS 3 Xrotation Yrotation Zrotation
			JOINT LeftFoot
			{
				OFFSET -0.430247 -48.264931 -6.423300
				CHANNELS 3 Xrotation Yrotation Zrotation
				JOINT LeftToeBase
				{
					OFFSET 4.230900 -16.068199 23.438400
					CHANNELS 3 Xrotation Yrotation Zrotation
					JOINT LeftToe_End
					{
						OFFSET 4.510700 0.695400 19.974600
						CHANNELS 3 Xrotation Yrotation Zrotation
						End Site
						{
							OFFSET 0.000000 0.000000 0.000000
						}
					}
				}
			}
		}
	}
	JOINT RightUpLeg
	{
		OFFSET -11.333700 -6.187798 -0.413800
		CHANNELS 3 Xrotation Yrotation Zrotation
		JOINT RightLeg
		{
			OFFSET -0.430392 -32.302628 3.733000
			CHANNELS 3 Xrotation Yrotation Zrotation
			JOINT RightFoot
			{
				OFFSET 0.430392 -48.264973 -6.423500
				CHANNELS 3 Xrotation Yrotation Zrotation
				JOINT RightToeBase
				{
					OFFSET -4.230900 -16.068199 23.438400
					CHANNELS 3 Xrotation Yrotation Zrotation
					JOINT RightToe_End
					{
						OFFSET -4.510700 0.695400 19.974600
						CHANNELS 3 Xrotation Yrotation Zrotation
						End Site
						{
							OFFSET 0.000000 0.000000 0.000000
						}
					}
				}
			}
		}
	}
}
MOTION
Frames: 5
Frame Time: 0.016667
-0.026223 92.024742 0.703289 5.452371 3.007693 -3.803222 4.908245 1.315015 2.179245 9.857122 2.800250 1.722123 0.000000 0.000000 0.000000 9.857131 2.800251 1.722122 -7.496577 -3.144982 -0.434788 -14.101446 -7.360290 -5.253898 0.000001 -0.000000 0.000000 1.084067 -1.226537 -9.108714 0.000000 0.000000 0.000000 21.951215 16.129896 -69.744605 5.201746 -103.989890 -6.123519 11.822918 -20.243274 2.841646 -3.690087 -7.086984 -6.632091 5.385684 13.659114 2.745840 0.000005 0.000004 -0.000004 -0.000003 -0.000001 0.000001 -4.456510 -5.493674 -78.091841 -6.126709 -4.186016 -86.100292 -0.000000 -0.000002 0.000002 -4.795465 -3.750241 -81.576924 -5.123582 -5.382113 -79.877567 0.000001 0.000000 -0.000002 -3.664362 4.578266 -85.637404 -3.073166 -4.292449 -82.602996 0.000002 -0.000000 0.000002 -3.281142 10.951577 -91.300566 -1.701535 -6.201372 -92.126575 -0.000001 0.000001 -0.000001 0.776464 6.054086 9.529804 0.000000 0.000000 0.000000 5.506741 -10.523602 55.529298 -70.896476 86.710419 75.613438 -0.541035 5.793781 2.436032 1.190243 2.334529 7.237268 4.255916 -11.098852 -2.566629 0.000004 -0.000011 -0.000011 0.000001 -0.000003 0.000003 3.425540 2.971809 72.847150 -5.590523 2.960001 92.129027 0.000001 -0.000001 0.000000 -2.182839 2.038027 78.119080 -4.717950 4.324969 85.933076 0.000002 -0.000001 0.000001 -3.544737 -3.138596 85.503354 -4.845229 5.681181 88.623330 -0.000000 0.000001 0.000000 -4.116706 -7.840887 98.141513 -5.448572 9.316749 98.222355 0.000001 0.000001 -0.000002 -59.573504 5.490905 -0.053043 98.801487 12.813725 3.775963 5.878075 -0.543421 9.834573 -12.455226 -0.588258 -11.444722 -0.000002 0.000000 0.000001 -25.661232 -6.641662 4.727157 50.532871 -0.362968 -1.644979 -23.313638 0.596534 -1.704373 -10.243103 12.978178 -1.678546 0.000000 0.000001 -0.000000 
0.782083 93.217865 11.272314 3.090333 0.531690 -0.663464 4.775540 1.665366 1.543405 9.626596 3.123979 0.274439 0.000000 0.000000 0.000000 9.626595 3.123980 0.274438 -2.454933 -3.325482 -1.544303 -13.137932 -8.242274 -5.177377 0.000001 -0.000000 -0.000000 1.017760 -3.352018 -7.689896 0.000000 0.000000 0.000000 20.366306 21.388591 -69.829477 3.146282 -98.519823 -7.266008 11.665531 -20.398022 3.541817 -3.674532 -7.031715 -6.573696 5.390399 13.668773 2.745673 0.000005 -0.000001 -0.000003 -0.000002 -0.000001 0.000000 -4.415734 -5.486233 -77.672611 -6.076168 -4.184112 -85.682230 0.000003 0.000000 0.000001 -4.761756 -3.747127 -81.225054 -5.085658 -5.375478 -79.524808 -0.000001 -0.000002 0.000001 -3.642434 4.581576 -85.331835 -3.053928 -4.287328 -82.294046 -0.000001 -0.000001 0.000001 -3.262903 10.951641 -90.969398 -1.695749 -6.201294 -91.857712 0.000001 -0.000001 -0.000001 0.471246 6.581694 7.077384 0.000000 0.000000 0.000000 2.677241 -8.531775 52.506321 -124.821174 83.187346 129.906291 0.046010 8.442210 -4.547166 1.063719 2.389925 7.088563 4.210531 -10.996095 -2.558762 -0.000002 -0.000008 -0.000012 0.000002 0.000003 0.000000 3.285701 2.958059 72.384473 -5.532260 2.967157 91.535047 0.000001 -0.000001 -0.000001 -2.157723 2.014429 77.565363 -4.667168 4.322081 85.362208 0.000001 0.000000 0.000001 -3.433795 -3.143521 84.861392 -4.797949 5.679362 88.073978 -0.000000 -0.000001 -0.000000 -3.951821 -7.817790 97.410778 -5.399212 9.319789 97.590870 -0.000000 -0.000001 0.000002 -66.458335 3.734391 -0.594241 93.810312 13.166219 3.873929 12.981885 0.031968 11.208206 -9.623130 -0.608882 -16.220041 0.000001 0.000000 -0.000000 -17.445294 -5.472010 1.880101 51.726491 0.339593 -3.427555 -21.333012 0.445255 -0.108292 -19.656704 13.502021 0.910695 -0.000000 -0.000000 -0.000000 
1.533786 93.811203 21.876169 0.126424 -1.748248 2.737153 4.703082 1.848722 0.646975 9.488550 3.163839 -0.986326 0.000000 0.000000 0.000000 9.488544 3.163836 -0.986324 2.602479 -3.411513 -2.577497 -12.199131 -8.439067 -5.062698 -0.000000 -0.000000 -0.000000 0.950480 -5.646695 -7.066025 0.000000 0.000000 0.000000 19.644671 26.553696 -68.303394 -44.943966 -91.993318 -56.509915 12.433752 -20.263192 4.153217 -3.631283 -6.892564 -6.427403 5.402844 13.694234 2.745129 -0.000001 0.000002 -0.000003 0.000002 -0.000004 0.000000 -4.314013 -5.463033 -76.623022 -5.949250 -4.173850 -84.635736 -0.000000 0.000000 0.000003 -4.676706 -3.733407 -80.346302 -4.991183 -5.357314 -78.643782 0.000002 -0.000000 -0.000001 -3.588963 4.586308 -84.569975 -3.007772 -4.280706 -81.524052 -0.000003 -0.000000 -0.000001 -3.217715 10.951124 -90.145062 -1.681566 -6.201967 -91.189275 0.000001 -0.000002 -0.000001 0.215434 7.052319 4.417729 0.000000 0.000000 0.000000 -0.696323 -7.601961 49.506611 -136.723885 80.118433 141.096340 -1.682961 8.719116 -8.099225 0.735813 2.516789 6.699275 4.098456 -10.742290 -2.538911 -0.000002 -0.000007 -0.000008 -0.000002 0.000001 -0.000000 2.946276 2.950507 71.140628 -5.372445 2.971035 89.955203 -0.000001 -0.000000 0.000001 -2.097272 1.952045 76.105376 -4.531264 4.309439 83.837546 0.000001 0.000000 -0.000001 -3.153761 -3.176333 83.187196 -4.671694 5.673722 86.598425 0.000000 -0.000001 -0.000000 -3.529611 -7.793268 95.484214 -5.273502 9.333582 95.921558 0.000000 -0.000001 -0.000000 -69.411715 2.145210 -2.286387 87.059224 14.300415 4.008476 17.014797 0.338032 11.494194 -6.963981 -3.229654 -8.664719 -0.000000 0.000000 -0.000000 -12.849421 -3.857941 -2.680796 57.353146 -0.311630 -4.614090 -11.293438 0.190998 2.924102 -39.822059 10.204019 9.525302 -0.000001 0.000000 0.000001 
2.047869 93.398132 31.673075 -3.206077 -4.526536 5.946871 4.892850 2.026989 -0.729468 9.838375 3.169748 -2.175855 0.000000 0.000000 0.000000 9.838368 3.169749 -2.175856 7.329080 -3.470431 -3.521876 -11.394779 -8.119054 -4.996079 0.000004 0.000000 -0.000000 0.873607 -7.727235 -6.705414 0.000000 0.000000 0.000000 19.528667 31.328210 -66.134078 -131.666759 -98.266744 -145.356083 13.514971 -20.043431 4.561849 -3.569428 -6.695153 -6.222066 5.420895 13.731115 2.744348 0.000003 0.000003 -0.000005 -0.000001 0.000004 -0.000003 -4.171551 -5.426565 -75.144170 -5.770808 -4.154592 -83.161057 0.000003 -0.000001 0.000000 -4.557144 -3.710893 -79.109327 -4.858681 -5.329166 -77.403631 0.000001 0.000001 0.000001 -3.514131 4.593309 -83.498475 -2.943359 -4.271649 -80.441078 -0.000000 -0.000003 0.000001 -3.154220 10.951208 -88.986225 -1.661706 -6.202860 -90.250233 -0.000000 0.000001 0.000002 -0.010817 7.405823 1.517427 0.000000 0.000000 0.000000 -3.959889 -7.479181 46.796669 -143.758270 76.454808 146.944785 -4.558732 7.638966 -9.646814 0.277062 2.694357 6.152287 3.942593 -10.389837 -2.510523 -0.000001 -0.000007 -0.000009 -0.000000 -0.000000 -0.000000 2.483105 2.965523 69.371417 -5.146210 2.966111 87.716745 0.000001 -0.000000 -0.000000 -2.014732 1.861868 74.039701 -4.339281 4.284731 81.675006 -0.000001 -0.000000 -0.000001 -2.765292 -3.243717 80.825112 -4.492727 5.660381 84.502896 -0.000000 0.000000 -0.000001 -2.938743 -7.797503 92.760902 -5.095221 9.348763 93.559289 0.000001 0.000001 0.000001 -70.136692 0.750161 -4.097849 79.442320 17.157587 4.629280 17.684859 0.308021 11.275951 -5.330129 -5.944698 0.652713 -0.000001 -0.000000 0.000001 -14.711548 1.417354 -7.513162 65.947621 -2.057630 -5.500800 13.676259 0.642902 3.484199 -61.799299 1.860981 11.718232 0.000000 -0.000000 0.000000 
2.184585 91.977051 41.078636 -6.404305 -8.346559 8.653483 5.249788 2.278598 -2.299387 10.507890 3.279739 -3.461314 0.000000 0.000000 0.000000 10.507891 3.279740 -3.461317 11.415391 -3.410769 -4.364175 -10.844146 -7.168179 -5.071505 -0.000000 0.000000 0.000000 0.774296 -9.387640 -6.438878 0.000000 0.000000 0.000000 20.205195 35.514600 -63.760116 -135.636506 -107.342618 -152.241406 14.696532 -19.840077 4.688468 -3.486557 -6.430062 -5.950341 5.443113 13.782351 2.747473 0.000007 0.000006 -0.000003 -0.000002 0.000002 0.000000 -3.983694 -5.371888 -73.176352 -5.534232 -4.121305 -81.198614 0.000001 -0.000001 -0.000002 -4.399189 -3.677780 -77.464966 -4.683583 -5.287265 -75.755165 0.000001 -0.000000 -0.000000 -3.414853 4.605308 -82.075364 -2.857873 -4.256741 -79.002776 0.000002 0.000002 0.000003 -3.069972 10.953099 -87.448032 -1.635315 -6.203608 -89.004448 0.000002 -0.000003 -0.000001 -0.199664 7.579317 -1.593902 0.000000 0.000000 0.000000 -6.612559 -8.410416 44.562015 -147.787726 71.668383 149.583356 -7.996791 5.401388 -9.701830 -0.322399 2.931763 5.434802 3.738938 -9.930190 -2.472045 0.000004 -0.000007 -0.000009 0.000001 -0.000000 -0.000000 1.894202 3.027119 67.020091 -4.848656 2.943774 84.752477 -0.000000 -0.000000 0.000001 -1.909619 1.739112 71.305870 -4.086923 4.240363 78.809263 -0.000000 0.000003 0.000001 -2.262857 -3.367168 77.705607 -4.256153 5.632856 81.723480 0.000001 -0.000000 0.000000 -2.167069 -7.866926 89.161549 -4.857857 9.359203 90.433515 -0.000000 -0.000000 -0.000000 -68.426276 -0.513620 -4.775439 70.867379 21.270898 5.532241 15.118528 0.076296 11.167293 -4.770382 -8.955204 4.908109 -0.000001 -0.000000 0.000000 -7.421427 5.676283 -10.630838 58.305200 4.754615 -3.935422 47.896135 -0.591985 -3.235054 -91.810699 -4.783518 4.577762 0.000000 0.000000 -0.000000 
